<svg width="20" height="15" viewBox="0 0 20 15" fill="none" xmlns="http://www.w3.org/2000/svg">
<path d="M13.3035 7.00213C12.7753 7.00213 12.2785 6.72088 12.0097 6.27088L10.0003 2.93963L7.9941 6.27088C7.72222 6.72401 7.22535 7.00526 6.69722 7.00526C6.5566 7.00526 6.41597 6.98651 6.2816 6.94588L2.00035 5.72088V11.2834C2.00035 11.7428 2.31285 12.1428 2.7566 12.2521L9.51285 13.9428C9.8316 14.0209 10.166 14.0209 10.4816 13.9428L17.2441 12.2521C17.6878 12.1396 18.0003 11.7396 18.0003 11.2834V5.72088L13.7191 6.94276C13.5847 6.98338 13.4441 7.00213 13.3035 7.00213ZM19.9472 3.49588L18.3378 0.283382C18.241 0.0896317 18.0316 -0.0228684 17.816 0.00525665L10.0003 1.00213L12.866 5.75526C12.9847 5.95213 13.2222 6.04588 13.4441 5.98338L19.6285 4.21776C19.9378 4.12713 20.0878 3.78338 19.9472 3.49588ZM1.66285 0.283382L0.0534711 3.49588C-0.0902789 3.78338 0.0628461 4.12713 0.369096 4.21463L6.55347 5.98026C6.77535 6.04276 7.01285 5.94901 7.1316 5.75213L10.0003 1.00213L2.1816 0.00525665C1.96597 -0.0197434 1.75972 0.0896317 1.66285 0.283382Z" fill="#3F4E65"/>
</svg>
